<svg width="30" height="27" viewBox="0 0 30 27" fill="none" xmlns="http://www.w3.org/2000/svg">
<mask id="path-1-outside-1_0_1" maskUnits="userSpaceOnUse" x="-0.489538" y="-0.279211" width="30.1897" height="27.2109" fill="black">
<rect fill="white" x="-0.489538" y="-0.279211" width="30.1897" height="27.2109"/>
<path d="M3.84825 1.00008C4.55117 1.03108 5.14828 1.29571 5.63957 1.79398C6.13104 2.26621 6.38732 2.85397 6.4084 3.55726L6.27338 22.6974C6.10611 24.2588 5.24079 25.099 3.67741 25.2182C2.94826 25.2131 2.31191 24.9742 1.76835 24.5016C1.25102 24.0032 0.994931 23.3894 1.00007 22.6602L1.13509 3.52006C1.16628 2.7911 1.44393 2.19408 1.96806 1.72902C2.49237 1.23791 3.1191 0.994932 3.84825 1.00008ZM10.4793 7.92202C12.2323 6.76248 14.5974 5.59424 17.5745 4.4173L23.9999 1.72818C24.2872 1.59999 24.6003 1.52408 24.939 1.50042C25.6685 1.45348 26.2919 1.67924 26.8093 2.17769C27.3268 2.65011 27.5829 3.26391 27.5775 4.0191C27.5715 4.87845 27.3847 5.51517 27.0172 5.92925C26.6759 6.31748 26.2309 6.63987 25.6822 6.89642L20.199 8.92811C19.1284 9.33723 18.1098 9.74673 17.1434 10.1566C16.2031 10.5406 15.3406 10.9902 14.5557 11.5056C13.7711 11.9688 13.3507 12.4997 13.2944 13.0983C13.3424 13.6715 13.7553 14.2083 14.5331 14.7086C15.3106 15.2349 16.1667 15.7097 17.1012 16.133C18.062 16.5304 19.0747 16.9412 20.1395 17.3654L26.2174 19.6349C26.7624 19.8992 27.2027 20.2408 27.5383 20.6599C27.9001 21.053 28.078 21.6793 28.0719 22.5387C28.0666 23.2939 27.8018 23.917 27.2775 24.4081C26.7533 24.8732 26.1269 25.0771 25.3981 25.0199C25.0598 24.9914 24.7478 24.9111 24.4623 24.7789L17.4516 21.8387C14.4914 20.6199 12.13 19.4183 10.3675 18.234C8.63117 17.0238 7.7579 15.2988 7.74766 13.0591C7.78949 10.8198 8.70003 9.10742 10.4793 7.92202Z"/>
</mask>
<path d="M3.84825 1.00008C4.55117 1.03108 5.14828 1.29571 5.63957 1.79398C6.13104 2.26621 6.38732 2.85397 6.4084 3.55726L6.27338 22.6974C6.10611 24.2588 5.24079 25.099 3.67741 25.2182C2.94826 25.2131 2.31191 24.9742 1.76835 24.5016C1.25102 24.0032 0.994931 23.3894 1.00007 22.6602L1.13509 3.52006C1.16628 2.7911 1.44393 2.19408 1.96806 1.72902C2.49237 1.23791 3.1191 0.994932 3.84825 1.00008ZM10.4793 7.92202C12.2323 6.76248 14.5974 5.59424 17.5745 4.4173L23.9999 1.72818C24.2872 1.59999 24.6003 1.52408 24.939 1.50042C25.6685 1.45348 26.2919 1.67924 26.8093 2.17769C27.3268 2.65011 27.5829 3.26391 27.5775 4.0191C27.5715 4.87845 27.3847 5.51517 27.0172 5.92925C26.6759 6.31748 26.2309 6.63987 25.6822 6.89642L20.199 8.92811C19.1284 9.33723 18.1098 9.74673 17.1434 10.1566C16.2031 10.5406 15.3406 10.9902 14.5557 11.5056C13.7711 11.9688 13.3507 12.4997 13.2944 13.0983C13.3424 13.6715 13.7553 14.2083 14.5331 14.7086C15.3106 15.2349 16.1667 15.7097 17.1012 16.133C18.062 16.5304 19.0747 16.9412 20.1395 17.3654L26.2174 19.6349C26.7624 19.8992 27.2027 20.2408 27.5383 20.6599C27.9001 21.053 28.078 21.6793 28.0719 22.5387C28.0666 23.2939 27.8018 23.917 27.2775 24.4081C26.7533 24.8732 26.1269 25.0771 25.3981 25.0199C25.0598 24.9914 24.7478 24.9111 24.4623 24.7789L17.4516 21.8387C14.4914 20.6199 12.13 19.4183 10.3675 18.234C8.63117 17.0238 7.7579 15.2988 7.74766 13.0591C7.78949 10.8198 8.70003 9.10742 10.4793 7.92202Z" fill="#1373FB"/>
<path d="M3.84825 1.00008L3.89231 0.00104631L3.87381 0.000231096L3.8553 0.000100512L3.84825 1.00008ZM5.63957 1.79398L4.92749 2.49608L4.93697 2.5057L4.94672 2.51506L5.63957 1.79398ZM6.4084 3.55726L7.40837 3.56431L7.4085 3.5458L7.40795 3.5273L6.4084 3.55726ZM6.27338 22.6974L7.26769 22.8039L7.273 22.7543L7.27336 22.7045L6.27338 22.6974ZM3.67741 25.2182L3.67036 26.2182L3.71195 26.2185L3.75342 26.2153L3.67741 25.2182ZM1.76835 24.5016L1.07451 25.2217L1.09292 25.2395L1.11222 25.2563L1.76835 24.5016ZM1.13509 3.52006L0.136005 3.47732L0.135241 3.49516L0.135116 3.51301L1.13509 3.52006ZM1.96806 1.72902L2.63176 2.47701L2.64184 2.46807L2.65168 2.45886L1.96806 1.72902ZM10.4793 7.92202L9.92758 7.08797L9.92482 7.08981L10.4793 7.92202ZM17.5745 4.4173L17.9421 5.34726L17.9514 5.34361L17.9606 5.33977L17.5745 4.4173ZM23.9999 1.72818L24.3859 2.65065L24.3966 2.64617L24.4072 2.64144L23.9999 1.72818ZM24.939 1.50042L24.8748 0.502472L24.8693 0.502851L24.939 1.50042ZM26.8093 2.17769L26.1154 2.89782L26.1251 2.90717L26.1351 2.91625L26.8093 2.17769ZM27.0172 5.92925L26.2693 5.26545L26.2661 5.26901L27.0172 5.92925ZM25.6822 6.89642L26.0296 7.83413L26.0684 7.81978L26.1058 7.8023L25.6822 6.89642ZM20.199 8.92811L19.8515 7.99036L19.842 7.99399L20.199 8.92811ZM17.1434 10.1566L17.5215 11.0824L17.5338 11.0772L17.1434 10.1566ZM14.5557 11.5056L15.0641 12.3667L15.0846 12.3546L15.1045 12.3415L14.5557 11.5056ZM13.2944 13.0983L12.2988 13.0046L12.2905 13.0931L12.2979 13.1818L13.2944 13.0983ZM14.5331 14.7086L15.0936 13.8805L15.0839 13.8739L15.0741 13.8676L14.5331 14.7086ZM17.1012 16.133L16.6886 17.0439L16.7037 17.0507L16.719 17.0571L17.1012 16.133ZM20.1395 17.3654L19.7694 18.2944L19.7795 18.2984L19.7897 18.3022L20.1395 17.3654ZM26.2174 19.6349L26.6536 18.7351L26.6113 18.7145L26.5672 18.6981L26.2174 19.6349ZM27.5383 20.6599L26.7577 21.285L26.7792 21.3118L26.8024 21.337L27.5383 20.6599ZM27.2775 24.4081L27.9412 25.1561L27.9512 25.1472L27.9611 25.138L27.2775 24.4081ZM25.3981 25.0199L25.3144 26.0164L25.3198 26.0168L25.3981 25.0199ZM24.4623 24.7789L24.8825 23.8715L24.8659 23.8638L24.849 23.8567L24.4623 24.7789ZM17.4516 21.8387L17.8383 20.9165L17.8323 20.9141L17.4516 21.8387ZM10.3675 18.234L9.79566 19.0544L9.80266 19.0593L9.80973 19.064L10.3675 18.234ZM7.74766 13.0591L6.74783 13.0405L6.74761 13.0521L6.74767 13.0637L7.74766 13.0591ZM3.84825 1.00008L3.80419 1.99911C4.25649 2.01905 4.6145 2.17865 4.92749 2.49608L5.63957 1.79398L6.35164 1.09188C5.68205 0.412771 4.84585 0.0430995 3.89231 0.00104631L3.84825 1.00008ZM5.63957 1.79398L4.94672 2.51506C5.24275 2.79951 5.39533 3.13614 5.40885 3.58722L6.4084 3.55726L7.40795 3.5273C7.37931 2.5718 7.01932 1.73291 6.33241 1.0729L5.63957 1.79398ZM6.4084 3.55726L5.40842 3.55021L5.27341 22.6904L6.27338 22.6974L7.27336 22.7045L7.40837 3.56431L6.4084 3.55726ZM6.27338 22.6974L5.27907 22.5909C5.21269 23.2105 5.02248 23.5674 4.80229 23.7812C4.58227 23.9949 4.22088 24.1739 3.6014 24.2211L3.67741 25.2182L3.75342 26.2153C4.69732 26.1434 5.55028 25.8427 6.19558 25.216C6.84072 24.5896 7.1668 23.7457 7.26769 22.8039L6.27338 22.6974ZM3.67741 25.2182L3.68446 24.2182C3.19079 24.2148 2.78547 24.0608 2.42449 23.747L1.76835 24.5016L1.11222 25.2563C1.83835 25.8876 2.70574 26.2114 3.67036 26.2182L3.67741 25.2182ZM1.76835 24.5016L2.4622 23.7815C2.14559 23.4764 1.99681 23.127 2.00005 22.6673L1.00007 22.6602L9.94897e-05 22.6532C-0.0069447 23.6518 0.356458 24.5299 1.07451 25.2217L1.76835 24.5016ZM1.00007 22.6602L2.00005 22.6673L2.13507 3.52712L1.13509 3.52006L0.135116 3.51301L9.94897e-05 22.6532L1.00007 22.6602ZM1.13509 3.52006L2.13418 3.5628C2.15431 3.09213 2.31959 2.75401 2.63176 2.47701L1.96806 1.72902L1.30435 0.981025C0.568269 1.63416 0.178238 2.49007 0.136005 3.47732L1.13509 3.52006ZM1.96806 1.72902L2.65168 2.45886C2.98579 2.1459 3.3641 1.99669 3.84119 2.00005L3.84825 1.00008L3.8553 0.000100512C2.8741 -0.00682098 1.99894 0.329925 1.28444 0.999178L1.96806 1.72902ZM10.4793 7.92202L11.031 8.75607C12.7044 7.64914 14.9998 6.51047 17.9421 5.34726L17.5745 4.4173L17.2068 3.48733C14.195 4.67801 11.7601 5.87583 9.92759 7.08797L10.4793 7.92202ZM17.5745 4.4173L17.9606 5.33977L24.3859 2.65065L23.9999 1.72818L23.6138 0.805709L17.1884 3.49483L17.5745 4.4173ZM23.9999 1.72818L24.4072 2.64144C24.5797 2.56452 24.7773 2.51415 25.0087 2.49799L24.939 1.50042L24.8693 0.502851C24.4232 0.534003 23.9948 0.635466 23.5925 0.814916L23.9999 1.72818ZM24.939 1.50042L25.0032 2.49836C25.4578 2.46911 25.8045 2.59826 26.1154 2.89782L26.8093 2.17769L27.5031 1.45757C26.7793 0.76022 25.8792 0.437862 24.8748 0.502485L24.939 1.50042ZM26.8093 2.17769L26.1351 2.91625C26.4256 3.18144 26.5811 3.51555 26.5776 4.01204L27.5775 4.0191L28.5775 4.02615C28.5847 3.01227 28.228 2.11877 27.4835 1.43914L26.8093 2.17769ZM27.5775 4.0191L26.5776 4.01204C26.5723 4.75705 26.4077 5.10953 26.2693 5.26546L27.0172 5.92925L27.7651 6.59305C28.3617 5.92081 28.5706 4.99985 28.5775 4.02615L27.5775 4.0191ZM27.0172 5.92925L26.2661 5.26901C26.0302 5.5374 25.7036 5.7825 25.2586 5.99055L25.6822 6.89642L26.1058 7.8023C26.7582 7.49725 27.3216 7.09756 27.7682 6.5895L27.0172 5.92925ZM25.6822 6.89642L25.3348 5.95872L19.8515 7.99041L20.199 8.92811L20.5464 9.86581L26.0296 7.83413L25.6822 6.89642ZM20.199 8.92811L19.842 7.99399C18.7612 8.40702 17.7314 8.82099 16.7529 9.23595L17.1434 10.1566L17.5338 11.0772C18.4882 10.6725 19.4955 10.2674 20.5559 9.86223L20.199 8.92811ZM17.1434 10.1566L16.7653 9.23082C15.7702 9.63723 14.8498 10.1162 14.0068 10.6696L14.5557 11.5056L15.1045 12.3415C15.8313 11.8643 16.6361 11.4439 17.5215 11.0824L17.1434 10.1566ZM14.5557 11.5056L14.0472 10.6445C13.1344 11.1834 12.3982 11.9478 12.2988 13.0046L13.2944 13.0983L14.29 13.1919C14.3032 13.0516 14.4078 12.7541 15.0641 12.3667L14.5557 11.5056ZM13.2944 13.0983L12.2979 13.1818C12.3844 14.2139 13.1122 14.9836 13.9921 15.5496L14.5331 14.7086L15.0741 13.8676C14.3985 13.433 14.3005 13.1292 14.2909 13.0148L13.2944 13.0983ZM14.5331 14.7086L13.9725 15.5367C14.801 16.0976 15.7072 16.5994 16.6886 17.0439L17.1012 16.133L17.5138 15.2221C16.6261 14.82 15.8202 14.3723 15.0936 13.8805L14.5331 14.7086ZM17.1012 16.133L16.719 17.0571C17.6841 17.4563 18.701 17.8687 19.7694 18.2944L20.1395 17.3654L20.5096 16.4364C19.4485 16.0137 18.4398 15.6045 17.4834 15.2089L17.1012 16.133ZM20.1395 17.3654L19.7897 18.3022L25.8675 20.5717L26.2174 19.6349L26.5672 18.6981L20.4893 16.4286L20.1395 17.3654ZM26.2174 19.6349L25.7811 20.5347C26.2096 20.7425 26.5263 20.996 26.7577 21.285L27.5383 20.6599L28.3188 20.0348C27.8791 19.4856 27.3152 19.0558 26.6536 18.7351L26.2174 19.6349ZM27.5383 20.6599L26.8024 21.337C26.9142 21.4585 27.0773 21.7791 27.0719 22.5316L28.0719 22.5387L29.0719 22.5457C29.0787 21.5795 28.886 20.6476 28.2741 19.9827L27.5383 20.6599ZM28.0719 22.5387L27.0719 22.5316C27.0684 23.0285 26.9069 23.3851 26.5938 23.6783L27.2775 24.4081L27.9611 25.138C28.6967 24.449 29.0647 23.5593 29.0719 22.5457L28.0719 22.5387ZM27.2775 24.4081L26.6138 23.6601C26.3025 23.9363 25.9474 24.0599 25.4764 24.0229L25.3981 25.0199L25.3198 26.0168C26.3063 26.0943 27.2041 25.8101 27.9412 25.1561L27.2775 24.4081ZM25.3981 25.0199L25.4818 24.0234C25.2507 24.004 25.0538 23.9508 24.8825 23.8715L24.4623 24.7789L24.0421 25.6863C24.4418 25.8714 24.8688 25.9789 25.3144 26.0164L25.3981 25.0199ZM24.4623 24.7789L24.849 23.8567L17.8383 20.9166L17.4516 21.8387L17.0648 22.7609L24.0755 25.7011L24.4623 24.7789ZM17.4516 21.8387L17.8323 20.9141C14.9063 19.7093 12.6116 18.5372 10.9252 17.404L10.3675 18.234L9.80973 19.064C11.6483 20.2995 14.0765 21.5305 17.0709 22.7634L17.4516 21.8387ZM10.3675 18.234L10.9393 17.4136C9.48779 16.4019 8.7565 14.9912 8.74764 13.0546L7.74766 13.0591L6.74767 13.0637C6.75929 15.6064 7.77455 17.6457 9.79566 19.0544L10.3675 18.234ZM7.74766 13.0591L8.74748 13.0778C8.78354 11.1477 9.54239 9.74782 11.0337 8.75424L10.4793 7.92202L9.92482 7.08981C7.85768 8.46701 6.79545 10.4918 6.74783 13.0405L7.74766 13.0591Z" fill="white" mask="url(#path-1-outside-1_0_1)"/>
</svg>
